<svg xmlns="http://www.w3.org/2000/svg" viewBox="0 0 400 400" style="background-color: #3a2f1a;">
  <!-- Turban -->
  <ellipse cx="200" cy="120" rx="90" ry="70" fill="#f5e6d3"/>
  <ellipse cx="200" cy="100" rx="25" ry="35" fill="#d4af37"/>
  <ellipse cx="200" cy="110" rx="15" ry="20" fill="#b8941f"/>
  
  <!-- Face -->
  <circle cx="200" cy="180" r="45" fill="#deb887"/>
  
  <!-- Eyes -->
  <rect x="185" y="165" width="8" height="15" rx="2" fill="#2c1810"/>
  <rect x="207" y="165" width="8" height="15" rx="2" fill="#2c1810"/>
  
  <!-- Mustache -->
  <path d="M 175 195 Q 190 200 200 195 Q 210 200 225 195" stroke="#2c1810" stroke-width="6" fill="none" stroke-linecap="round"/>
  
  <!-- Body -->
  <rect x="140" y="225" width="120" height="150" rx="10" fill="#8b0000"/>
  
  <!-- Decorative patterns on robe -->
  <g fill="#d4af37">
    <!-- Center pattern -->
    <circle cx="200" cy="280" r="8"/>
    <path d="M 200 265 L 205 275 L 200 285 L 195 275 Z"/>
    <path d="M 200 295 L 205 305 L 200 315 L 195 305 Z"/>
    
    <!-- Side patterns -->
    <g transform="translate(160, 260)">
      <circle cx="0" cy="0" r="4"/>
      <path d="M -5 10 L 0 15 L 5 10 L 0 5 Z"/>
      <circle cx="0" cy="25" r="4"/>
    </g>
    <g transform="translate(240, 260)">
      <circle cx="0" cy="0" r="4"/>
      <path d="M -5 10 L 0 15 L 5 10 L 0 5 Z"/>
      <circle cx="0" cy="25" r="4"/>
    </g>
  </g>
  
  <!-- Green belt -->
  <rect x="150" y="320" width="100" height="15" fill="#2d5016"/>
  
  <!-- Arms -->
  <ellipse cx="125" cy="280" rx="15" ry="40" fill="#8b0000"/>
  <ellipse cx="275" cy="280" rx="15" ry="40" fill="#8b0000"/>
  
  <!-- Hands -->
  <circle cx="115" cy="320" r="12" fill="#deb887"/>
  <circle cx="285" cy="320" r="12" fill="#deb887"/>
  
  <!-- Scroll in hand -->
  <rect x="100" y="305" width="30" height="8" rx="4" fill="#f5e6d3"/>
  <rect x="95" y="300" width="25" height="20" rx="3" fill="#f5e6d3"/>
  
  <!-- Decorative border on robe -->
  <rect x="150" y="235" width="100" height="3" fill="#d4af37"/>
  <rect x="150" y="365" width="100" height="3" fill="#d4af37"/>
</svg> 