<svg xmlns="http://www.w3.org/2000/svg" viewBox="0 0 400 400" style="background-color: #3a2f1a;">
  <!-- Helmet -->
  <path d="M 150 120 Q 200 80 250 120 Q 260 130 250 140 L 230 145 Q 200 150 170 145 L 150 140 Q 140 130 150 120" fill="#b22222"/>
  <ellipse cx="200" cy="110" rx="15" ry="8" fill="#d4af37"/>
  
  <!-- Face -->
  <ellipse cx="200" cy="170" rx="35" ry="40" fill="#deb887"/>
  
  <!-- Eyes -->
  <rect x="185" y="160" width="8" height="12" rx="2" fill="#2c1810"/>
  <rect x="207" y="160" width="8" height="12" rx="2" fill="#2c1810"/>
  
  <!-- Sad mouth -->
  <path d="M 185 185 Q 200 195 215 185" stroke="#2c1810" stroke-width="3" fill="none" stroke-linecap="round"/>
  
  <!-- Body -->
  <rect x="150" y="210" width="100" height="140" rx="8" fill="#b22222"/>
  
  <!-- Belt -->
  <rect x="160" y="280" width="80" height="12" fill="#8b4513"/>
  <rect x="195" y="282" width="10" height="8" fill="#d4af37"/>
  
  <!-- Arms -->
  <ellipse cx="135" cy="250" rx="12" ry="35" fill="#b22222"/>
  <ellipse cx="265" cy="250" rx="12" ry="35" fill="#b22222"/>
  
  <!-- Hands -->
  <circle cx="125" cy="285" r="10" fill="#deb887"/>
  <circle cx="275" cy="285" r="10" fill="#deb887"/>
  
  <!-- Axe -->
  <rect x="80" y="190" width="8" height="120" fill="#8b4513"/>
  <path d="M 75 180 Q 65 170 50 175 Q 40 185 45 200 Q 50 210 65 205 Q 80 200 85 190 Q 88 185 75 180" fill="#c0c0c0"/>
  <path d="M 85 190 Q 95 185 105 190 Q 110 200 105 210 Q 95 215 85 210 Q 80 200 85 190" fill="#c0c0c0"/>
  
  <!-- Decorative elements on armor -->
  <rect x="160" y="220" width="80" height="2" fill="#8b0000"/>
  <rect x="160" y="240" width="80" height="2" fill="#8b0000"/>
  <rect x="160" y="260" width="80" height="2" fill="#8b0000"/>
</svg> 